<?xml version="1.0" encoding="utf-8"?>
<!-- Generator: Adobe Illustrator 17.0.0, SVG Export Plug-In . SVG Version: 6.00 Build 0)  -->
<!DOCTYPE svg PUBLIC "-//W3C//DTD SVG 1.1//EN" "http://www.w3.org/Graphics/SVG/1.1/DTD/svg11.dtd">
<svg version="1.1" id="图层_1" xmlns="http://www.w3.org/2000/svg" xmlns:xlink="http://www.w3.org/1999/xlink" x="0px" y="0px"
	 width="256px" height="256px" viewBox="0 0 256 256" enable-background="new 0 0 256 256" xml:space="preserve">
<g>
	<g>
		<defs>
			<path id="SVGID_1_" d="M253.5,214.457c0,16.066-20.251,40.043-37.661,40.043H40.376c-15.884,0-35.863-20.888-37.316-36.227
				L2.812,44.681C2.812,22.886,26.637,2.5,44.652,2.5h162.746c31.409,0,46.103,27.844,46.103,40.027V214.457z"/>
		</defs>
		<linearGradient id="SVGID_2_" gradientUnits="userSpaceOnUse" x1="128.1561" y1="254.5" x2="128.1561" y2="2.5">
			<stop  offset="0" style="stop-color:#EA5514"/>
			<stop  offset="1" style="stop-color:#F8B62D"/>
		</linearGradient>
		<use xlink:href="#SVGID_1_"  overflow="visible" fill="url(#SVGID_2_)"/>
		<clipPath id="SVGID_3_">
			<use xlink:href="#SVGID_1_"  overflow="visible"/>
		</clipPath>
		<linearGradient id="SVGID_4_" gradientUnits="userSpaceOnUse" x1="9" y1="40" x2="132.9467" y2="40">
			<stop  offset="0" style="stop-color:#FFFFFF;stop-opacity:0"/>
			<stop  offset="0.9624" style="stop-color:#FFFFFF"/>
			<stop  offset="1" style="stop-color:#FFFFFF"/>
		</linearGradient>
		<polygon clip-path="url(#SVGID_3_)" fill="url(#SVGID_4_)" points="125.331,44 9,44 9,36 132.947,36 		"/>
		<g clip-path="url(#SVGID_3_)">
			<linearGradient id="SVGID_5_" gradientUnits="userSpaceOnUse" x1="-28" y1="72.5" x2="94.8684" y2="72.5">
				<stop  offset="0" style="stop-color:#FFFFFF;stop-opacity:0"/>
				<stop  offset="0.9624" style="stop-color:#FFFFFF"/>
				<stop  offset="1" style="stop-color:#FFFFFF"/>
			</linearGradient>
			<polygon fill="url(#SVGID_5_)" points="87.253,76 -28,76 -28,69 94.868,69 			"/>
			<linearGradient id="SVGID_6_" gradientUnits="userSpaceOnUse" x1="-21" y1="111.5" x2="102.0832" y2="111.5">
				<stop  offset="0" style="stop-color:#FFFFFF;stop-opacity:0"/>
				<stop  offset="0.9624" style="stop-color:#FFFFFF"/>
				<stop  offset="1" style="stop-color:#FFFFFF"/>
			</linearGradient>
			<polygon fill="url(#SVGID_6_)" points="94.468,116 -21,116 -21,107 102.083,107 			"/>
			<linearGradient id="SVGID_7_" gradientUnits="userSpaceOnUse" x1="-58" y1="142" x2="65.6082" y2="142">
				<stop  offset="0" style="stop-color:#FFFFFF;stop-opacity:0"/>
				<stop  offset="0.9624" style="stop-color:#FFFFFF"/>
				<stop  offset="1" style="stop-color:#FFFFFF"/>
			</linearGradient>
			<polygon fill="url(#SVGID_7_)" points="57.993,146 -58,146 -58,138 65.608,138 			"/>
		</g>
		<path clip-path="url(#SVGID_3_)" fill="#FFFFFF" d="M223.047,215.733c-3.781,0-7.407,0.661-10.773,1.867
			c-6.051-8.062-15.688-13.277-26.544-13.277c-5.988,0-11.601,1.595-16.45,4.371c-9.971-12.579-25.687-20.7-43.377-20.7
			c-17.49,0-33.046,7.942-43.033,20.278c-4.953-2.942-10.734-4.637-16.913-4.637c-11.422,0-21.495,5.775-27.462,14.563
			c-3.791-1.586-7.951-2.464-12.317-2.464c-17.64,0-31.94,14.3-31.94,31.94c0,17.64,14.3,31.94,31.94,31.94
			c10.47,0,19.763-5.038,25.588-12.822c4.303,2.04,9.112,3.185,14.19,3.185c4.599,0,8.978-0.937,12.96-2.628
			c9.5,15.476,26.981,25.859,46.986,25.859c19.755,0,37.057-10.121,46.635-25.276c4.044,1.755,8.503,2.734,13.192,2.734
			c4.528,0,8.843-0.91,12.776-2.553c5.859,7.027,14.677,11.502,24.541,11.502c17.64,0,31.94-14.3,31.94-31.94
			C254.987,230.034,240.687,215.733,223.047,215.733z"/>
		<use xlink:href="#SVGID_1_"  overflow="visible" fill="none" stroke="#F5A517" stroke-miterlimit="10"/>
	</g>
	<g>
		<circle fill="#FFFFFF" cx="208.91" cy="56.037" r="18.11"/>
		<path fill="#FFFFFF" d="M220.393,83.912l-10.203,16.671l-39.018-50.626c-4.958-5.717-6.651-6.6-13.485-4.942l-32.829,9.537
			c-5.321,1.814-6.32,10.062-4.111,13.664c1.748,2.851,4.111,6.893,14.09,4.386l23.88-7.288l10.198,14.148L52.667,170.154
			c-5.079,3.99-5.321,10.294-2.084,14.362c3.238,4.068,9.339,4.623,13.935,1.479l68.079-53.69l25.353,20.033l-30.273,7.203
			c-4.313,2.217-6.147,6.493-5.59,10.682c0.714,5.372,6.156,9.605,12.09,8.676l48.557-11.658c4.163-0.726,9.84-5.431,7.399-12.97
			c0,0-0.643-2.376-3.583-4.46l-28.923-23.109l31.117-22.733l14.906,19.817c-0.591-0.796,2.883,4.216,7.059,4.374
			c5.256,0.688,8.604-4.265,8.604-4.265l17.891-29.7c3.507-8.102-1.466-12.139-2.67-12.92
			C230.061,78.374,225.708,78.494,220.393,83.912z"/>
	</g>
</g>
</svg>
